<?xml version="1.0" encoding="UTF-8" standalone="no"?>
<svg xmlns:dc="http://purl.org/dc/elements/1.1/" xmlns:cc="http://creativecommons.org/ns#" xmlns:rdf="http://www.w3.org/1999/02/22-rdf-syntax-ns#" xmlns:svg="http://www.w3.org/2000/svg" xmlns="http://www.w3.org/2000/svg" xmlns:sodipodi="http://sodipodi.sourceforge.net/DTD/sodipodi-0.dtd" xmlns:inkscape="http://www.inkscape.org/namespaces/inkscape" viewBox="0 0 140 144"  xml:space="preserve" id="svg2" version="1.1" sodipodi:docname="soyo_logo.svg" inkscape:version="0.92.2 5c3e80d, 2017-08-06">
    <sodipodi:namedview pagecolor="#ffffff" bordercolor="#666666" borderopacity="1" objecttolerance="10" gridtolerance="10" guidetolerance="10" inkscape:pageopacity="0" inkscape:pageshadow="2" inkscape:window-width="789" inkscape:window-height="712" id="namedview172" showgrid="false" inkscape:zoom="0.73" inkscape:cx="396.85068" inkscape:cy="908.0816" inkscape:window-x="0" inkscape:window-y="0" inkscape:window-maximized="0" inkscape:current-layer="svg2" />
    <metadata id="metadata8">
        <rdf:RDF>
            <cc:Work rdf:about="">
                <dc:format>image/svg+xml</dc:format>
                <dc:type rdf:resource="http://purl.org/dc/dcmitype/StillImage" />
            </cc:Work>
        </rdf:RDF>
    </metadata>
    <defs id="defs6">
        <clipPath id="clipPath20" clipPathUnits="userSpaceOnUse">
            <path id="path18" d="M 0,841.89 H 595.276 V 0 H 0 Z" />
        </clipPath>
        <linearGradient id="linearGradient396" spreadMethod="pad" gradientTransform="matrix(48.755821,54.632637,54.632637,-48.755821,108.63919,587.69324)" gradientUnits="userSpaceOnUse" y2="0" x2="1" y1="0" x1="0">
            <stop id="stop388" offset="0" style="stop-opacity:1;stop-color:#40a3dc" />
            <stop id="stop390" offset="0.624288" style="stop-opacity:1;stop-color:#3f7fc1" />
            <stop id="stop392" offset="0.979826" style="stop-opacity:1;stop-color:#54b66c" />
            <stop id="stop394" offset="1" style="stop-opacity:1;stop-color:#54b66c" />
        </linearGradient>
        <linearGradient id="linearGradient420" spreadMethod="pad" gradientTransform="matrix(48.755821,54.632637,54.632637,-48.755821,117.8503,579.47296)" gradientUnits="userSpaceOnUse" y2="0" x2="1" y1="0" x1="0">
            <stop id="stop412" offset="0" style="stop-opacity:1;stop-color:#40a3dc" />
            <stop id="stop414" offset="0.624288" style="stop-opacity:1;stop-color:#3f7fc1" />
            <stop id="stop416" offset="0.979826" style="stop-opacity:1;stop-color:#54b66c" />
            <stop id="stop418" offset="1" style="stop-opacity:1;stop-color:#54b66c" />
        </linearGradient>
        <linearGradient id="linearGradient444" spreadMethod="pad" gradientTransform="matrix(48.755821,54.632637,54.632637,-48.755821,124.94887,573.138)" gradientUnits="userSpaceOnUse" y2="0" x2="1" y1="0" x1="0">
            <stop id="stop436" offset="0" style="stop-opacity:1;stop-color:#40a3dc" />
            <stop id="stop438" offset="0.624288" style="stop-opacity:1;stop-color:#3f7fc1" />
            <stop id="stop440" offset="0.979826" style="stop-opacity:1;stop-color:#54b66c" />
            <stop id="stop442" offset="1" style="stop-opacity:1;stop-color:#54b66c" />
        </linearGradient>
        <linearGradient id="linearGradient468" spreadMethod="pad" gradientTransform="matrix(48.755821,54.632637,54.632637,-48.755821,135.34604,563.85925)" gradientUnits="userSpaceOnUse" y2="0" x2="1" y1="0" x1="0">
            <stop id="stop460" offset="0" style="stop-opacity:1;stop-color:#40a3dc" />
            <stop id="stop462" offset="0.624288" style="stop-opacity:1;stop-color:#3f7fc1" />
            <stop id="stop464" offset="0.979826" style="stop-opacity:1;stop-color:#54b66c" />
            <stop id="stop466" offset="1" style="stop-opacity:1;stop-color:#54b66c" />
        </linearGradient>
        <linearGradient id="linearGradient492" spreadMethod="pad" gradientTransform="matrix(59.86816,67.084412,67.084412,-59.86816,140.49411,555.02374)" gradientUnits="userSpaceOnUse" y2="0" x2="1" y1="0" x1="0">
            <stop id="stop484" offset="0" style="stop-opacity:1;stop-color:#40a3dc" />
            <stop id="stop486" offset="0.624288" style="stop-opacity:1;stop-color:#3f7fc1" />
            <stop id="stop488" offset="0.979826" style="stop-opacity:1;stop-color:#54b66c" />
            <stop id="stop490" offset="1" style="stop-opacity:1;stop-color:#54b66c" />
        </linearGradient>
        <linearGradient id="linearGradient516" spreadMethod="pad" gradientTransform="matrix(59.86816,67.084412,67.084412,-59.86816,128.69846,565.5506)" gradientUnits="userSpaceOnUse" y2="0" x2="1" y1="0" x1="0">
            <stop id="stop508" offset="0" style="stop-opacity:1;stop-color:#40a3dc" />
            <stop id="stop510" offset="0.624288" style="stop-opacity:1;stop-color:#3f7fc1" />
            <stop id="stop512" offset="0.979826" style="stop-opacity:1;stop-color:#54b66c" />
            <stop id="stop514" offset="1" style="stop-opacity:1;stop-color:#54b66c" />
        </linearGradient>
        <linearGradient id="linearGradient540" spreadMethod="pad" gradientTransform="matrix(59.86816,67.084412,67.084412,-59.86816,131.90965,562.68481)" gradientUnits="userSpaceOnUse" y2="0" x2="1" y1="0" x1="0">
            <stop id="stop532" offset="0" style="stop-opacity:1;stop-color:#40a3dc" />
            <stop id="stop534" offset="0.624288" style="stop-opacity:1;stop-color:#3f7fc1" />
            <stop id="stop536" offset="0.979826" style="stop-opacity:1;stop-color:#54b66c" />
            <stop id="stop538" offset="1" style="stop-opacity:1;stop-color:#54b66c" />
        </linearGradient>
        <linearGradient id="linearGradient564" spreadMethod="pad" gradientTransform="matrix(59.86816,67.084412,67.084412,-59.86816,143.60568,552.24689)" gradientUnits="userSpaceOnUse" y2="0" x2="1" y1="0" x1="0">
            <stop id="stop556" offset="0" style="stop-opacity:1;stop-color:#40a3dc" />
            <stop id="stop558" offset="0.624288" style="stop-opacity:1;stop-color:#3f7fc1" />
            <stop id="stop560" offset="0.979826" style="stop-opacity:1;stop-color:#54b66c" />
            <stop id="stop562" offset="1" style="stop-opacity:1;stop-color:#54b66c" />
        </linearGradient>
        <linearGradient id="linearGradient588" spreadMethod="pad" gradientTransform="matrix(59.86816,67.084412,67.084412,-59.86816,118.74767,574.43097)" gradientUnits="userSpaceOnUse" y2="0" x2="1" y1="0" x1="0">
            <stop id="stop580" offset="0" style="stop-opacity:1;stop-color:#40a3dc" />
            <stop id="stop582" offset="0.624288" style="stop-opacity:1;stop-color:#3f7fc1" />
            <stop id="stop584" offset="0.979826" style="stop-opacity:1;stop-color:#54b66c" />
            <stop id="stop586" offset="1" style="stop-opacity:1;stop-color:#54b66c" />
        </linearGradient>
        <linearGradient id="linearGradient612" spreadMethod="pad" gradientTransform="matrix(59.86816,67.084412,67.084412,-59.86816,115.85398,577.01337)" gradientUnits="userSpaceOnUse" y2="0" x2="1" y1="0" x1="0">
            <stop id="stop604" offset="0" style="stop-opacity:1;stop-color:#40a3dc" />
            <stop id="stop606" offset="0.624288" style="stop-opacity:1;stop-color:#3f7fc1" />
            <stop id="stop608" offset="0.979826" style="stop-opacity:1;stop-color:#54b66c" />
            <stop id="stop610" offset="1" style="stop-opacity:1;stop-color:#54b66c" />
        </linearGradient>
        <linearGradient id="linearGradient636" spreadMethod="pad" gradientTransform="matrix(59.86816,67.084412,67.084412,-59.86816,109.13623,583.00848)" gradientUnits="userSpaceOnUse" y2="0" x2="1" y1="0" x1="0">
            <stop id="stop628" offset="0" style="stop-opacity:1;stop-color:#40a3dc" />
            <stop id="stop630" offset="0.624288" style="stop-opacity:1;stop-color:#3f7fc1" />
            <stop id="stop632" offset="0.979826" style="stop-opacity:1;stop-color:#54b66c" />
            <stop id="stop634" offset="1" style="stop-opacity:1;stop-color:#54b66c" />
        </linearGradient>
        <linearGradient id="linearGradient660" spreadMethod="pad" gradientTransform="matrix(59.86816,67.084412,67.084412,-59.86816,103.57774,587.96906)" gradientUnits="userSpaceOnUse" y2="0" x2="1" y1="0" x1="0">
            <stop id="stop652" offset="0" style="stop-opacity:1;stop-color:#40a3dc" />
            <stop id="stop654" offset="0.624288" style="stop-opacity:1;stop-color:#3f7fc1" />
            <stop id="stop656" offset="0.979826" style="stop-opacity:1;stop-color:#54b66c" />
            <stop id="stop658" offset="1" style="stop-opacity:1;stop-color:#54b66c" />
        </linearGradient>
        <linearGradient id="linearGradient684" spreadMethod="pad" gradientTransform="matrix(59.86816,67.084412,67.084412,-59.86816,107.51309,584.45703)" gradientUnits="userSpaceOnUse" y2="0" x2="1" y1="0" x1="0">
            <stop id="stop676" offset="0" style="stop-opacity:1;stop-color:#40a3dc" />
            <stop id="stop678" offset="0.624288" style="stop-opacity:1;stop-color:#3f7fc1" />
            <stop id="stop680" offset="0.979826" style="stop-opacity:1;stop-color:#54b66c" />
            <stop id="stop682" offset="1" style="stop-opacity:1;stop-color:#54b66c" />
        </linearGradient>
        <linearGradient id="linearGradient708" spreadMethod="pad" gradientTransform="matrix(59.86816,67.084412,67.084412,-59.86816,116.03125,576.85516)" gradientUnits="userSpaceOnUse" y2="0" x2="1" y1="0" x1="0">
            <stop id="stop700" offset="0" style="stop-opacity:1;stop-color:#40a3dc" />
            <stop id="stop702" offset="0.624288" style="stop-opacity:1;stop-color:#3f7fc1" />
            <stop id="stop704" offset="0.979826" style="stop-opacity:1;stop-color:#54b66c" />
            <stop id="stop706" offset="1" style="stop-opacity:1;stop-color:#54b66c" />
        </linearGradient>
        <clipPath id="clipPath718" clipPathUnits="userSpaceOnUse">
            <path id="path716" d="M 0,841.89 H 595.276 V 0 H 0 Z" />
        </clipPath>
    </defs>
    <g transform="matrix(1.3333333,0,0,-1.3333333,-124.65754,862.24603)" id="g10">
        <g id="g376">
            <g id="g378">
                <g id="g384">
                    <g id="g386">
                        <path id="path398" style="fill:url(#linearGradient396);stroke:none" d="m 97.939,592.082 c -0.763,-0.331 -1.436,-0.785 -2.002,-1.35 v 0 c -0.564,-0.565 -1.018,-1.238 -1.349,-2.001 v 0 c -0.334,-0.769 -0.504,-1.6 -0.504,-2.468 v 0 c 0,-1.073 0.168,-2.038 0.497,-2.868 v 0 c 0.321,-0.811 0.748,-1.564 1.267,-2.238 v 0 c 0.511,-0.662 1.096,-1.282 1.742,-1.845 v 0 c 0.622,-0.544 1.262,-1.075 1.901,-1.581 v 0 c 0.625,-0.495 1.237,-1.002 1.82,-1.508 v 0 c 0.561,-0.486 1.068,-1.017 1.504,-1.578 v 0 c 0.426,-0.548 0.77,-1.158 1.025,-1.813 v 0 c 0.25,-0.642 0.376,-1.382 0.376,-2.202 v 0 c 0,-0.523 -0.103,-1.024 -0.306,-1.487 v 0 c -0.208,-0.472 -0.486,-0.885 -0.829,-1.227 v 0 c -0.343,-0.343 -0.751,-0.623 -1.211,-0.83 v 0 c -0.45,-0.202 -0.942,-0.304 -1.461,-0.304 v 0 c -0.523,0 -1.024,0.103 -1.488,0.306 v 0 c -0.471,0.207 -0.884,0.486 -1.226,0.828 v 0 c -0.343,0.343 -0.621,0.756 -0.828,1.228 v 0 c -0.204,0.462 -0.307,0.962 -0.307,1.486 v 0 0.584 h -2.476 v -0.584 c 0,-0.87 0.17,-1.7 0.504,-2.469 v 0 c 0.33,-0.762 0.784,-1.436 1.349,-2.002 v 0 c 0.566,-0.565 1.24,-1.018 2.003,-1.35 v 0 c 0.77,-0.334 1.601,-0.503 2.469,-0.503 v 0 c 0.868,0 1.693,0.17 2.452,0.506 v 0 c 0.749,0.332 1.415,0.787 1.977,1.35 v 0 c 0.565,0.565 1.018,1.239 1.35,2.004 v 0 c 0.334,0.772 0.503,1.603 0.503,2.473 v 0 c 0,1.122 -0.172,2.145 -0.513,3.042 v 0 c -0.335,0.88 -0.782,1.69 -1.328,2.405 v 0 c -0.535,0.701 -1.147,1.356 -1.82,1.948 v 0 c -0.651,0.571 -1.316,1.13 -1.979,1.662 v 0 l -0.006,0.004 c -0.593,0.464 -1.178,0.945 -1.74,1.429 v 0 c -0.535,0.461 -1.014,0.96 -1.425,1.484 v 0 c -0.401,0.51 -0.726,1.07 -0.968,1.663 v 0 c -0.234,0.574 -0.352,1.253 -0.352,2.019 v 0 c 0,0.522 0.103,1.014 0.304,1.465 v 0 c 0.208,0.46 0.487,0.869 0.831,1.214 v 0 c 0.342,0.342 0.755,0.621 1.226,0.828 v 0 c 0.465,0.205 0.966,0.308 1.488,0.308 v 0 c 0.519,0 1.011,-0.102 1.461,-0.305 v 0 c 0.46,-0.206 0.868,-0.486 1.211,-0.83 v 0 c 0.343,-0.342 0.623,-0.749 0.83,-1.211 v 0 c 0.203,-0.45 0.305,-0.941 0.305,-1.462 v 0 -0.585 h 2.475 v 0.585 c 0,0.867 -0.169,1.697 -0.503,2.469 v 0 c -0.332,0.764 -0.786,1.435 -1.351,1.996 v 0 c -0.567,0.561 -1.233,1.008 -1.982,1.329 v 0 c -0.758,0.325 -1.581,0.489 -2.446,0.489 v 0 c -0.868,0 -1.699,-0.169 -2.47,-0.503" inkscape:connector-curvature="0" />
                    </g>
                </g>
            </g>
        </g>
        <g id="g400">
            <g id="g402">
                <g id="g408">
                    <g id="g410">
                        <path id="path422" style="fill:url(#linearGradient420);stroke:none" d="m 114.485,592.082 c -0.764,-0.331 -1.437,-0.786 -2.001,-1.35 v 0 c -0.565,-0.564 -1.019,-1.238 -1.349,-2.001 v 0 c -0.335,-0.769 -0.504,-1.6 -0.504,-2.468 v 0 -15.633 c 0,-0.87 0.169,-1.7 0.504,-2.469 v 0 c 0.329,-0.762 0.784,-1.436 1.349,-2.002 v 0 c 0.565,-0.564 1.238,-1.018 2.001,-1.35 v 0 c 0.771,-0.334 1.602,-0.503 2.469,-0.503 v 0 c 0.869,0 1.693,0.17 2.453,0.505 v 0 c 0.748,0.331 1.413,0.785 1.977,1.348 v 0 c 0.564,0.566 1.019,1.238 1.351,2.002 v 0 c 0.333,0.77 0.502,1.601 0.502,2.469 v 0 15.633 c 0,0.866 -0.169,1.697 -0.503,2.468 v 0 c -0.332,0.764 -0.786,1.438 -1.35,2.001 v 0 c -0.564,0.564 -1.229,1.017 -1.977,1.348 v 0 c -0.76,0.336 -1.584,0.505 -2.453,0.505 v 0 c -0.867,0 -1.698,-0.169 -2.469,-0.503 m 0.981,-24.993 c -0.47,0.206 -0.882,0.485 -1.224,0.829 v 0 c -0.343,0.343 -0.622,0.756 -0.829,1.229 v 0 c -0.204,0.465 -0.307,0.966 -0.307,1.49 v 0 15.658 c 0,0.522 0.102,1.014 0.305,1.465 v 0 c 0.207,0.46 0.486,0.869 0.831,1.214 v 0 c 0.341,0.342 0.754,0.621 1.225,0.828 v 0 c 0.465,0.205 0.964,0.308 1.487,0.308 v 0 c 0.519,0 1.011,-0.102 1.462,-0.305 v 0 c 0.46,-0.208 0.867,-0.488 1.211,-0.831 v 0 c 0.343,-0.344 0.623,-0.752 0.831,-1.214 v 0 c 0.201,-0.451 0.304,-0.943 0.304,-1.465 v 0 -15.658 c 0,-0.524 -0.103,-1.025 -0.306,-1.49 v 0 c -0.209,-0.474 -0.488,-0.887 -0.829,-1.229 v 0 c -0.345,-0.345 -0.751,-0.625 -1.211,-0.831 v 0 c -0.45,-0.202 -0.943,-0.305 -1.462,-0.305 v 0 c -0.524,0 -1.023,0.103 -1.488,0.307" inkscape:connector-curvature="0" />
                    </g>
                </g>
            </g>
        </g>
        <g id="g424">
            <g id="g426">
                <g id="g432">
                    <g id="g434">
                        <path id="path446" style="fill:url(#linearGradient444);stroke:none" d="m 136.503,592.428 -4.07,-10.446 -4.033,10.446 h -2.682 l 5.491,-14.082 0.005,-13.842 h 2.475 v 13.828 l 5.494,14.096 z" inkscape:connector-curvature="0" />
                    </g>
                </g>
            </g>
        </g>
        <g id="g448">
            <g id="g450">
                <g id="g456">
                    <g id="g458">
                        <path id="path470" style="fill:url(#linearGradient468);stroke:none" d="m 145.915,592.082 c -0.763,-0.331 -1.436,-0.785 -2.001,-1.35 v 0 c -0.566,-0.565 -1.019,-1.238 -1.35,-2.001 v 0 c -0.334,-0.769 -0.503,-1.6 -0.503,-2.468 v 0 -15.633 c 0,-0.87 0.169,-1.7 0.503,-2.468 v 0 c 0.33,-0.763 0.783,-1.437 1.35,-2.003 v 0 c 0.565,-0.565 1.239,-1.018 2.001,-1.35 v 0 c 0.771,-0.334 1.601,-0.503 2.469,-0.503 v 0 c 0.867,0 1.693,0.17 2.451,0.505 v 0 c 0.749,0.331 1.415,0.785 1.979,1.348 v 0 c 0.564,0.566 1.018,1.238 1.35,2.002 v 0 c 0.334,0.77 0.503,1.601 0.503,2.469 v 0 15.633 c 0,0.866 -0.169,1.696 -0.503,2.468 v 0 c -0.332,0.764 -0.786,1.438 -1.35,2.001 v 0 c -0.564,0.564 -1.229,1.017 -1.979,1.348 v 0 c -0.758,0.336 -1.584,0.505 -2.451,0.505 v 0 c -0.868,0 -1.698,-0.169 -2.469,-0.503 m 0.981,-24.993 c -0.47,0.206 -0.883,0.485 -1.225,0.829 v 0 c -0.343,0.343 -0.621,0.756 -0.829,1.229 v 0 c -0.203,0.465 -0.307,0.965 -0.307,1.49 v 0 15.658 c 0,0.522 0.103,1.014 0.306,1.465 v 0 c 0.207,0.46 0.486,0.869 0.83,1.214 v 0 c 0.342,0.342 0.754,0.621 1.226,0.828 v 0 c 0.464,0.205 0.965,0.308 1.487,0.308 v 0 c 0.519,0 1.011,-0.102 1.461,-0.305 v 0 c 0.46,-0.208 0.868,-0.488 1.212,-0.831 v 0 c 0.344,-0.344 0.623,-0.753 0.831,-1.214 v 0 c 0.201,-0.451 0.304,-0.943 0.304,-1.465 v 0 -15.658 c 0,-0.524 -0.103,-1.025 -0.307,-1.49 v 0 c -0.208,-0.474 -0.486,-0.887 -0.828,-1.229 v 0 c -0.344,-0.345 -0.752,-0.625 -1.212,-0.831 v 0 c -0.449,-0.202 -0.941,-0.305 -1.461,-0.305 v 0 c -0.523,0 -1.023,0.103 -1.488,0.307" inkscape:connector-curvature="0" />
                    </g>
                </g>
            </g>
        </g>
        <g id="g472">
            <g id="g474">
                <g id="g480">
                    <g id="g482">
                        <path id="path494" style="fill:url(#linearGradient492);stroke:none" d="m 179.143,609.026 c -0.625,-0.017 -0.242,-0.726 -0.591,-0.953 v 0 c -0.178,-1.317 -0.987,-1.865 -2.235,-2.252 v 0 c -2.055,-0.636 -4.221,-0.926 -6.176,-1.886 v 0 c -0.16,-0.292 -0.485,-0.229 -0.73,-0.336 v 0 c -0.452,-0.197 -1.175,-0.281 -0.967,-0.938 v 0 c 0.192,-0.606 0.894,-0.368 1.347,-0.267 v 0 c 0.998,0.224 2.015,0.322 3.003,0.637 v 0 c 1.296,0.414 1.575,0.162 1.578,-1.207 v 0 c 0.012,-3.878 0.012,-7.755 0,-11.631 v 0 c -0.003,-1.336 -0.332,-1.542 -1.6,-1.221 v 0 c -0.857,0.216 -1.236,0.817 -1.406,1.568 v 0 c -0.152,0.678 -0.233,1.375 -0.227,2.082 v 0 c 0.02,2.241 0.013,4.484 0.004,6.725 v 0 c -0.003,0.539 0.129,1.192 -0.752,1.188 v 0 c -0.103,-0.084 -0.286,-0.158 -0.296,-0.252 v 0 c -0.36,-3.284 -0.957,-6.592 -0.168,-9.859 v 0 c 0.231,-0.952 0.262,-2.451 1.878,-2.56 v 0 c 1.669,-0.384 3.353,-0.722 5.068,-0.498 v 0 c 1.36,0.177 2.516,-0.247 3.626,-0.939 v 0 c 0.438,-0.156 0.82,-0.434 1.252,-0.598 v 0 c 0.435,-0.164 0.98,-0.378 1.263,0.119 v 0 c 0.267,0.471 -0.163,0.857 -0.488,1.198 v 0 c -0.556,0.583 -1.305,0.713 -2.04,0.813 v 0 c -1.058,0.143 -2.1,0.373 -3.154,0.531 v 0 c -0.625,0.093 -1.504,0.057 -1.489,0.924 v 0 c 0.017,0.982 -0.645,2.164 0.58,2.921 v 0 c 1.605,-0.145 3.293,-0.037 4.009,1.568 v 0 c 1.115,2.504 0.664,5.1 -0.291,7.607 v 0 c -0.126,0.329 -0.284,0.587 -0.704,0.514 v 0 c -0.371,-0.063 -0.552,-0.324 -0.68,-0.634 v 0 c -0.154,-0.374 -0.016,-0.731 0.079,-1.092 v 0 c 0.451,-1.697 0.374,-3.438 0.234,-5.146 v 0 c -0.085,-1.034 -0.808,-0.998 -1.507,-0.963 v 0 c -0.261,0.013 -0.519,0.027 -0.739,-0.015 v 0 c -0.916,-0.176 -0.746,0.587 -0.748,1.115 v 0 c -0.01,2.24 0.085,4.484 -0.037,6.717 v 0 c -0.075,1.403 0.299,2.156 1.697,2.675 v 0 c 2.191,0.812 2.498,1.473 2.259,3.39 v 0 c -0.253,0.341 -0.236,0.955 -0.829,0.955 v 0 c -0.007,0 -0.015,0 -0.023,0 m 1.365,-22.605 c -0.003,0.002 -0.006,0.004 -0.009,0.006 v 0 c -0.003,10e-4 -0.006,0.002 -0.009,0.003 v 0 z" inkscape:connector-curvature="0" />
                    </g>
                </g>
            </g>
        </g>
        <g id="g496">
            <g id="g498">
                <g id="g504">
                    <g id="g506">
                        <path id="path518" style="fill:url(#linearGradient516);stroke:none" d="m 174.354,622.838 c -0.272,-0.329 -0.134,-0.699 0.067,-1.039 v 0 c 0.696,-1.178 1.654,-2.129 2.608,-3.093 v 0 c 1.085,-1.096 0.869,-1.937 -0.538,-2.507 v 0 c -2.009,-0.814 -4.209,-0.744 -6.246,-1.403 v 0 c -0.54,-0.174 -1.344,-0.277 -1.242,-1.067 v 0 c 0.085,-0.662 0.603,-0.662 1.191,-0.661 v 0 c 0.151,0 0.307,10e-4 0.462,-0.01 v 0 c 2.586,0.26 5.223,0.931 7.683,2.249 v 0 c 1.022,0.546 1.405,1.417 1.114,2.455 v 0 c -0.633,2.246 -1.954,3.995 -4.084,5.058 v 0 c -0.2,0.099 -0.415,0.219 -0.622,0.219 v 0 c -0.137,0 -0.271,-0.053 -0.393,-0.201" inkscape:connector-curvature="0" />
                    </g>
                </g>
            </g>
        </g>
        <g id="g520">
            <g id="g522">
                <g id="g528">
                    <g id="g530">
                        <path id="path542" style="fill:url(#linearGradient540);stroke:none" d="m 178.529,614.693 c -0.649,-0.052 -0.511,-0.735 -0.493,-1.13 v 0 c 0.05,-1.127 -0.201,-2.056 -1.321,-2.516 v 0 c -0.768,-0.316 -1.532,-0.606 -2.389,-0.716 v 0 c -1.651,-0.216 -3.359,-0.197 -4.909,-0.967 v 0 c -0.43,-0.214 -0.695,-0.499 -0.572,-0.983 v 0 c 0.097,-0.38 0.382,-0.378 0.654,-0.376 v 0 c 0.088,10e-4 0.174,10e-4 0.254,-0.011 v 0 c 0.628,0.059 1.235,0.087 1.834,0.176 v 0 c 2.252,0.336 4.558,0.487 6.568,1.73 v 0 c 1.368,0.845 1.964,2.481 1.448,3.85 v 0 c -0.187,0.496 -0.498,0.945 -1.005,0.945 v 0 c -0.023,0 -0.045,0 -0.069,-0.002" inkscape:connector-curvature="0" />
                    </g>
                </g>
            </g>
        </g>
        <g id="g544">
            <g id="g546">
                <g id="g552">
                    <g id="g554">
                        <path id="path566" style="fill:url(#linearGradient564);stroke:none" d="m 182.187,618.122 c -0.588,-0.244 -0.89,-0.677 -0.509,-1.331 v 0 c 0.971,-0.179 1.91,-0.002 2.825,0.299 v 0 c 0.216,0.071 0.668,0.21 1.025,-0.008 v 0 c 0.141,-0.086 0.272,-0.232 0.482,-0.777 v 0 c 0.262,-0.686 0.357,-1.245 0.37,-1.327 v 0 c 0.239,-1.46 0.358,-2.19 0.031,-2.589 v 0 c -0.129,-0.158 -0.364,-0.27 -0.833,-0.494 v 0 c -0.743,-0.355 -1.346,-0.513 -1.519,-0.563 v 0 c -0.583,-0.164 -1.411,-0.52 -2.427,-1.379 v 0 c -0.026,-0.013 -0.361,-0.194 -0.401,-0.586 v 0 c -0.028,-0.278 0.107,-0.538 0.309,-0.678 v 0 c 0.247,-0.173 0.528,-0.122 0.678,-0.093 v 0 c 0.364,0.072 0.541,0.279 0.832,0.493 v 0 c 0.248,0.184 0.624,0.405 1.172,0.556 v 0 c 0.246,0.159 0.621,0.369 1.11,0.523 v 0 c 0.231,0.073 0.421,0.111 0.801,0.186 v 0 c 0.662,0.129 0.993,0.194 1.326,0.184 v 0 c 0.381,-0.01 0.854,-0.023 1.213,-0.298 v 0 c 0.74,-0.568 0.18,-1.857 0.125,-2.926 v 0 c -0.027,-0.523 -0.582,-0.719 -1.021,-0.824 v 0 c -2.114,-0.506 -3.885,-1.685 -5.653,-2.859 v 0 c -0.452,-0.302 -1.26,-0.673 -0.811,-1.353 v 0 c 0.371,-0.561 1.088,-0.264 1.649,0.027 v 0 c 0.199,0.102 0.432,0.138 0.648,0.204 v 0 c 1.264,1.045 2.735,1.727 4.222,2.369 v 0 c 0.737,0.319 1.142,0.076 1.088,-0.804 v 0 c -0.067,-1.113 -0.085,-2.228 -0.107,-3.343 v 0 c -0.021,-0.985 -0.498,-1.437 -1.491,-1.381 v 0 c -1.343,0.075 -2.688,0.144 -4.032,0.173 v 0 c -0.64,0.014 -1.542,-0.047 -1.566,-0.744 v 0 c -0.026,-0.779 0.889,-1.014 1.58,-1.06 v 0 c 0.967,-0.065 1.944,-0.104 2.918,0.075 v 0 c 0.86,0.159 1.73,0.195 2.503,-0.354 v 0 -0.001 c 0.488,-3.426 0.007,-6.857 0.063,-10.286 v 0 c 0.009,-0.495 -0.346,-0.551 -0.792,-0.459 v 0 c -1.26,0.261 -2.103,0.958 -2.442,2.215 v 0 c -0.235,0.872 -0.121,1.758 -0.099,2.644 v 0 c 0.032,1.299 0.103,2.613 -0.352,3.863 v 0 c -0.157,0.433 -0.066,1.213 -0.795,1.09 v 0 c -0.544,-0.093 -0.659,-0.764 -0.723,-1.254 v 0 c -0.343,-2.671 -0.129,-5.272 0.893,-7.807 v 0 c 0.7,-1.734 1.99,-2.514 3.746,-2.628 v 0 c 1.069,-0.069 2.145,10e-4 3.218,0.008 v 0 c 1.289,0.378 2.478,0.931 3.395,1.956 v 0 c 1.07,2.746 1.441,5.576 0.988,8.496 v 0 c -0.072,0.469 0.011,1.223 -0.697,1.17 v 0 c -0.731,-0.054 -0.815,-0.751 -0.825,-1.39 v 0 c -0.022,-1.54 0.034,-3.089 -0.124,-4.616 v 0 c -0.149,-1.432 -0.458,-2.897 -1.977,-3.611 v 0 c -1.263,-0.595 -1.575,-0.397 -1.584,0.997 v 0 c -0.017,2.802 -0.005,5.603 -0.003,8.405 v 0 c 0,0.42 -0.02,0.846 0.269,1.202 v 0 c 0.595,1.068 1.541,0.455 2.306,0.404 v 0 c 1.206,-0.08 2.398,-0.266 3.57,0.165 v 0 c 0.329,0.122 0.83,0.153 0.797,0.635 v 0 c -0.037,0.553 -0.523,0.754 -0.996,0.783 v 0 c -0.968,0.059 -1.94,0.047 -2.909,0.086 v 0 c -0.305,-0.006 -0.612,-0.01 -0.917,-0.005 v 0 c -0.534,-0.024 -1.068,-0.049 -1.592,0.127 v 0 c -0.13,0.04 -0.362,0.061 -0.374,0.124 v 0 c -0.299,1.564 -0.186,3.143 -0.069,4.712 v 0 c 0.038,0.509 0.444,0.413 0.857,0.267 v 0 c 1.372,-0.489 2.603,-1.237 3.84,-1.981 v 0 c 0.719,-0.432 1.456,-0.844 2.319,-0.916 v 0 c 0.288,-0.023 0.566,0.041 0.746,0.289 v 0 c 0.215,0.298 -0.034,0.518 -0.162,0.752 v 0 c -0.211,0.382 -0.545,0.632 -0.925,0.827 v 0 c -1.743,0.888 -3.41,2.024 -5.25,2.595 v 0 c -1.956,0.608 -1.451,1.959 -1.509,3.225 v 0 c -0.044,0.977 0.504,0.955 1.049,0.934 v 0 c 0.241,-0.009 0.482,-0.019 0.672,0.059 v 0 c 0.386,0.157 0.799,0.251 1.198,0.378 v 0 c 1.915,0.61 2.995,2.273 2.966,4.561 v 0 c -0.027,2.058 -1.034,3.686 -2.974,4.055 v 0 c -1.116,0.213 -2.225,0.314 -3.324,0.314 v 0 c -2.734,0 -5.413,-0.624 -8.015,-1.702 m 10.198,-5.764 c -0.902,0.168 -0.4,0.988 -0.492,1.516 v 0 c -0.19,1.091 -0.013,2.226 -0.462,3.296 v 0 c -0.285,0.678 0.002,0.918 0.742,0.81 v 0 c 1.753,-0.256 2.684,-1.213 2.634,-2.862 v 0 c 0.067,-0.63 -0.197,-1.238 -0.554,-1.781 v 0 c -0.374,-0.57 -0.919,-1.006 -1.581,-1.006 v 0 c -0.093,0 -0.189,0.009 -0.287,0.027 m -4.432,1.051 c -0.097,0.968 -0.144,1.935 -0.456,2.877 v 0 c -0.175,0.529 -0.446,1.22 0.457,1.469 v 0 c 0.89,0.246 1.599,0.04 1.849,-0.919 v 0 c 0.138,-0.53 0.106,-1.104 0.162,-1.655 v 0 c 0.055,-0.555 0.125,-1.107 0.219,-1.914 v 0 c 0.414,-1.034 -0.545,-0.939 -1.311,-1.077 v 0 c -0.122,-0.022 -0.228,-0.032 -0.32,-0.032 v 0 c -0.773,-10e-4 -0.546,0.726 -0.6,1.251" inkscape:connector-curvature="0" />
                    </g>
                </g>
            </g>
        </g>
        <g id="g568">
            <g id="g570">
                <g id="g576">
                    <g id="g578">
                        <path id="path590" style="fill:url(#linearGradient588);stroke:none" d="m 163.824,646.034 c -0.384,-0.032 -0.474,-0.446 -0.544,-0.778 v 0 c -0.06,-0.284 -0.095,-0.576 -0.098,-0.865 v 0 c -0.043,-3.448 0.059,-6.895 -0.151,-10.344 v 0 c -0.062,-1.016 -0.19,-1.714 -1.221,-2.183 v 0 c -0.611,-0.278 -1.198,-0.816 -1.392,-1.58 v 0 c -0.888,-1.089 -1.275,-2.374 -1.463,-3.738 v 0 c -0.461,-3.577 0.009,-6.964 2.127,-9.983 v 0 c 0.412,-0.588 0.789,-1.485 1.804,-0.779 v 0 c 0.056,0.15 0.056,0.297 -0.001,0.447 v 0 c -0.053,0.099 -0.11,0.195 -0.171,0.289 v 0 c -0.264,0.592 -0.676,1.092 -1.049,1.616 v 0 c -0.053,0.131 -0.097,0.267 -0.126,0.411 v 0 c -0.065,0.123 -0.137,0.24 -0.219,0.352 v 0 c -0.151,0.25 -0.294,0.505 -0.463,0.743 v 0 c -0.334,0.47 -0.503,1.04 -0.177,1.497 v 0 c 0.364,0.511 0.977,0.256 1.486,0.126 v 0 c 0.72,-0.186 1.347,-0.541 1.869,-1.083 v 0 c 0.337,-0.35 0.673,-0.706 1.051,-1.012 v 0 c 0.338,-0.273 0.727,-0.645 1.159,-0.302 v 0 c 0.488,0.387 0.22,0.881 -0.025,1.312 v 0 c -0.24,0.424 -0.53,0.816 -0.796,1.222 v 0 c -0.368,0.56 -0.891,0.937 -1.476,1.24 v 0 c -1.096,0.477 -2.277,0.675 -3.403,1.061 v 0 c -0.585,1.05 -0.201,2.134 0.312,2.95 v 0 c 0.459,0.729 1.426,0.052 2.167,0.007 v 0 c 0.349,-0.022 0.637,-0.205 0.908,-0.413 v 0 c 0.672,-0.488 1.255,-1.084 1.924,-1.575 v 0 c 0.241,-0.156 0.442,-0.361 0.666,-0.54 v 0 c 0.427,-0.344 0.847,-1.026 1.439,-0.606 v 0 c 0.615,0.437 0.044,1.026 -0.143,1.534 v 0 c -0.004,0.008 -0.008,0.016 -0.011,0.024 v 0 c -0.093,0.091 -0.196,0.177 -0.286,0.268 v 0 c -0.003,0.08 -0.02,0.148 -0.043,0.213 v 0 c -0.139,0.177 -0.29,0.345 -0.446,0.51 v 0 c -0.049,0.035 -0.098,0.071 -0.147,0.106 v 0 c -0.044,0.065 -0.089,0.125 -0.135,0.185 v 0 c -0.024,0.024 -0.048,0.049 -0.072,0.074 v 0 c -0.954,1.07 -2.269,1.331 -3.54,1.691 v 0 c -0.299,0.047 -0.603,0.091 -0.904,0.136 v 0 c -0.017,0.018 -0.032,0.037 -0.047,0.058 v 0 c -1.321,0.293 -1.326,0.332 -0.196,1.619 v 0 c 2.372,1.959 4.369,1.516 6.568,-1.454 v 0 c 0.184,-0.413 0.421,-1.014 0.618,-1.76 v 0 c 0.252,-0.965 0.763,-2.91 0.123,-5.073 v 0 c -0.324,-1.095 -0.818,-1.825 -1.385,-2.663 v 0 c -1.21,-1.788 -1.755,-1.685 -2.514,-2.952 v 0 c -0.945,-1.578 -0.957,-3.167 -0.968,-4.78 v 0 c 0,0 -0.011,-1.454 0.877,-3.956 v 0 c 0.079,-0.218 0.254,-0.638 0.587,-0.734 v 0 c 0.097,-0.028 0.21,-0.027 0.342,0.016 v 0 c 0.57,0.183 0.788,0.688 0.646,1.292 v 0 c -0.056,0.235 -0.161,0.457 -0.238,0.687 v 0 c -1.118,3.314 -0.755,6.322 1.961,8.749 v 0 c 1.11,0.994 1.627,2.249 2.038,3.601 v 0 c 0.566,2.046 0.763,4.092 0.014,6.139 v 0 c -0.864,2.588 -2.214,4.752 -5,5.624 v 0 c -0.803,0.252 -0.952,0.789 -0.943,1.558 v 0 c 0.035,3.21 0.019,6.421 0.01,9.63 v 0 c -0.002,0.482 -0.042,0.969 -0.12,1.445 v 0 c -0.065,0.398 -0.32,0.724 -0.719,0.724 v 0 c -0.021,0 -0.042,-0.001 -0.064,-0.003" inkscape:connector-curvature="0" />
                    </g>
                </g>
            </g>
        </g>
        <g id="g592">
            <g id="g594">
                <g id="g600">
                    <g id="g602">
                        <path id="path614" style="fill:url(#linearGradient612);stroke:none" d="m 167.893,644.422 c -0.207,-0.012 -0.355,-0.096 -0.42,-0.139 v 0 c -0.16,-1.499 -0.257,-2.762 -0.318,-3.734 v 0 c -0.05,-0.796 -0.082,-1.477 0.003,-2.364 v 0 c 0.061,-0.651 0.162,-1.185 0.245,-1.555 v 0 c 0.089,-0.206 0.228,-0.507 0.419,-0.861 v 0 c 0.667,-1.232 1.011,-1.31 1.684,-2.398 v 0 c 0.371,-0.598 0.744,-1.345 1.375,-2.171 v 0 c 0.129,-0.169 0.402,-0.513 0.799,-0.54 v 0 c 0.18,-0.012 0.373,0.039 0.573,0.172 v 0 c 0.636,0.42 0.118,0.885 -0.111,1.236 v 0 c -0.512,0.786 -1.009,1.581 -1.564,2.337 v 0 c -0.33,0.451 -0.804,1.118 -1.353,1.968 v 0 c -0.164,0.237 -0.381,0.596 -0.543,1.066 v 0 c 0,0 -0.146,0.424 -0.207,0.924 v 0 c -0.095,0.773 -0.071,2.546 0.134,4.873 v 0 c -0.006,0.194 -0.035,0.451 -0.134,0.736 v 0 c -0.05,0.144 -0.108,0.268 -0.165,0.372 v 0 c -0.064,0.03 -0.193,0.08 -0.362,0.08 v 0 c -0.018,0 -0.036,0 -0.055,-0.002" inkscape:connector-curvature="0" />
                    </g>
                </g>
            </g>
        </g>
        <g id="g616">
            <g id="g618">
                <g id="g624">
                    <g id="g626">
                        <path id="path638" style="fill:url(#linearGradient636);stroke:none" d="m 159.173,644.805 c -0.435,-0.021 -0.436,-0.45 -0.511,-0.759 v 0 c -0.222,-0.921 -0.032,-1.839 0.145,-2.732 v 0 c 0.544,-2.744 0.594,-5.364 -1.539,-7.552 v 0 c -0.404,-0.589 -0.837,-1.16 -1.203,-1.771 v 0 c -0.221,-0.371 -0.422,-0.848 0.023,-1.186 v 0 c 0.501,-0.38 0.92,0 1.265,0.325 v 0 c 0.382,0.36 0.702,0.784 1.051,1.18 v 0 c 0.832,1.289 1.435,2.692 2.03,4.099 v 0 c 0.506,1.656 0.213,3.318 0.042,4.98 v 0 c -0.226,0.935 -0.128,1.93 -0.555,2.83 v 0 c -0.155,0.327 -0.372,0.587 -0.715,0.587 v 0 c -0.011,0 -0.022,-0.001 -0.033,-0.001" inkscape:connector-curvature="0" />
                    </g>
                </g>
            </g>
        </g>
        <g id="g640">
            <g id="g642">
                <g id="g648">
                    <g id="g650">
                        <path id="path662" style="fill:url(#linearGradient660);stroke:none" d="m 146.706,643.588 c -0.173,-0.335 -0.098,-0.645 0.159,-0.931 v 0 c 0.313,-0.35 0.747,-0.418 1.151,-0.577 v 0 c 1.479,-0.582 3.134,-0.695 4.459,-1.691 v 0 c 1.142,-0.86 1.123,-1.42 -0.104,-2.284 v 0 c -0.492,-0.307 -1.038,-0.451 -1.596,-0.601 v 0 c -1.833,-0.495 -3.754,-0.657 -5.513,-1.434 v 0 c -0.844,-0.968 -0.343,-1.25 0.65,-1.255 v 0 c 2.737,-0.015 5.267,0.829 7.648,2.062 v 0 c 1.454,0.753 1.731,2.901 0.554,3.999 v 0 c -1.858,1.737 -4.168,2.593 -6.652,3.003 v 0 c -0.068,0.011 -0.137,0.018 -0.203,0.018 v 0 c -0.226,0 -0.432,-0.076 -0.553,-0.309" inkscape:connector-curvature="0" />
                    </g>
                </g>
            </g>
        </g>
        <g id="g664">
            <g id="g666">
                <g id="g672">
                    <g id="g674">
                        <path id="path686" style="fill:url(#linearGradient684);stroke:none" d="m 153.478,634.915 c 0.595,-1.204 -0.03,-1.655 -1.05,-1.998 v 0 c -0.831,-0.278 -1.656,-0.473 -2.537,-0.56 v 0 c -1.388,-0.138 -2.8,-0.231 -4.125,-0.726 v 0 c -0.413,-0.154 -1.062,-0.252 -0.883,-0.931 v 0 c 0.148,-0.566 0.669,-0.398 1.1,-0.382 v 0 c 0.53,0.019 1.062,-0.013 1.593,-0.023 v 0 c 1.342,0.2 2.684,0.399 4.027,0.597 v 0 c 0.538,0.221 1.078,0.433 1.611,0.664 v 0 c 2.344,1.02 2.681,2.525 1.023,4.532 v 0 c -0.741,-0.078 -1.108,-0.466 -0.759,-1.173" inkscape:connector-curvature="0" />
                    </g>
                </g>
            </g>
        </g>
        <g id="g688">
            <g id="g690">
                <g id="g696">
                    <g id="g698">
                        <path id="path710" style="fill:url(#linearGradient708);stroke:none" d="m 154.039,630.838 c -0.467,-0.041 -0.404,-0.478 -0.498,-0.78 v 0 c -0.166,-0.523 0.196,-1.187 -0.418,-1.595 v 0 c -10e-4,0.017 -0.002,0.035 -0.003,0.053 v 0 c -0.252,-0.617 -0.762,-0.688 -1.367,-0.736 v 0 c -1.719,-0.138 -3.421,-0.413 -5.061,-0.985 v 0 c -0.445,-0.56 -1.392,-0.02 -1.786,-0.834 v 0 c 0.786,-0.62 1.675,-0.375 2.497,-0.292 v 0 c 0.778,0.08 1.551,0.062 2.326,0.067 v 0 c 0.658,0.003 0.927,-0.325 0.881,-1.021 v 0 c -0.234,-3.592 -0.036,-7.191 -0.112,-10.785 v 0 c -0.011,-0.487 0.228,-1.169 -0.544,-1.313 v 0 c -0.616,-0.116 -1.102,0.163 -1.501,0.678 v 0 c -0.696,0.9 -0.882,1.896 -0.817,3.006 v 0 c 0.094,1.6 0.149,3.207 -0.041,4.804 v 0 c -0.051,0.427 -0.236,0.947 -0.743,0.934 v 0 c -0.468,-0.011 -0.477,-0.536 -0.541,-0.911 v 0 c -0.385,-2.28 0.056,-4.548 0.108,-6.821 v 0 c 0.259,-0.698 -0.073,-1.575 0.649,-2.132 v 0 c 1.058,-0.856 2.223,-1.296 3.629,-1.177 v 0 c 2.216,0.189 3.824,-0.822 4.899,-2.737 v 0 c 0.237,-0.422 0.489,-0.836 0.729,-1.258 v 0 c 0.231,-0.409 0.522,-0.744 1.04,-0.533 v 0 c 0.528,0.216 0.286,0.651 0.201,1.007 v 0 c -0.435,1.814 -1.26,3.37 -3.008,4.244 v 0 c -0.558,0.28 -1.169,0.458 -1.764,0.658 v 0 c -1.473,0.491 -0.701,1.702 -0.808,2.604 v 0 c -0.099,0.828 0.379,1.094 1.228,1.202 v 0 c 1.871,0.238 2.436,0.956 2.631,2.874 v 0 c 0.039,0.386 0.091,0.771 0.144,1.155 v 0 c 0.178,1.276 -0.011,2.527 -0.347,3.749 v 0 c -0.115,0.418 -0.285,0.998 -0.973,0.843 v 0 c -0.61,-0.138 -0.512,-0.66 -0.492,-1.065 v 0 c 0.04,-0.822 0.104,-1.65 0.251,-2.459 v 0 c 0.155,-0.849 0,-1.653 -0.218,-2.446 v 0 c -0.19,-0.695 -0.709,-0.991 -1.444,-0.947 v 0 c -0.865,0.051 -0.822,0.656 -0.821,1.253 v 0 c 0,1.556 0.129,3.126 -0.035,4.665 v 0 c -0.181,1.698 0.372,2.681 2.069,2.974 v 0 c 0.227,0.13 0.425,0.293 0.594,0.481 v 0 c 0.61,0.824 0.381,1.86 0.237,2.858 v 0 c -0.052,0.359 -0.253,0.721 -0.695,0.721 v 0 c -0.025,0 -0.05,-10e-4 -0.076,-0.003" inkscape:connector-curvature="0" />
                    </g>
                </g>
            </g>
        </g>
        <g id="g712">
            <g clip-path="url(#clipPath718)" id="g714">
                <g transform="translate(152.2588,555.0841)" id="g720">
                    <path id="path722" style="fill:#767164;fill-opacity:1;fill-rule:nonzero;stroke:none" d="M 0,0 V -3.664 H -3.482 V -4.277 H 0 V -8.555 H 1.104 V 0 Z" inkscape:connector-curvature="0" />
                </g>
                <g transform="translate(101.7798,542.8605)" id="g724">
                    <path id="path726" style="fill:#767164;fill-opacity:1;fill-rule:nonzero;stroke:none" d="M 0,0 V 3.882 H -1.104 V 0 H -7.763 V -0.613 H 6.66 V 0 Z" inkscape:connector-curvature="0" />
                </g>
                <g transform="translate(120.2285,542.8605)" id="g728">
                    <path id="path730" style="fill:#767164;fill-opacity:1;fill-rule:nonzero;stroke:none" d="M 0,0 V 3.62 H -1.104 V 0 H -5.047 V 3.62 H -6.151 V 0 h -4.124 V -0.613 H 4.147 V 0 Z" inkscape:connector-curvature="0" />
                </g>
                <g transform="translate(136.7412,555.0841)" id="g732">
                    <path id="path734" style="fill:#767164;fill-opacity:1;fill-rule:nonzero;stroke:none" d="M 0,0 V -5.416 H -3.891 V -6.029 H 0 v -5.535 H 1.104 V 0 Z" inkscape:connector-curvature="0" />
                </g>
                <g transform="translate(146.1802,540.0782)" id="g736">
                    <path id="path738" style="fill:#767164;fill-opacity:1;fill-rule:nonzero;stroke:none" d="m 0,0 v 2.033 h 7.183 v 3.21 H -1.104 V 4.629 H 6.079 V 2.646 H -1.104 V -0.613 H 8.029 V 0 Z" inkscape:connector-curvature="0" />
                </g>
                <g transform="translate(131.0215,540.0782)" id="g740">
                    <path id="path742" style="fill:#767164;fill-opacity:1;fill-rule:nonzero;stroke:none" d="M 0,0 V 4.192 H -1.104 V -0.613 H 7.698 V 0 Z" inkscape:connector-curvature="0" />
                </g>
                <g transform="translate(107.2705,547.9323)" id="g744">
                    <path id="path746" style="fill:#767164;fill-opacity:1;fill-rule:nonzero;stroke:none" d="m 0,0 c -0.545,0.5 -1.189,1.027 -1.938,1.539 -1.437,0.982 -2.818,1.61 -3.952,2.018 0.477,0.782 0.911,1.679 1.265,2.711 L -5.676,6.606 C -5.986,5.728 -6.455,4.679 -7.18,3.591 c -1.593,-2.392 -3.6,-3.741 -4.839,-4.43 l 0.365,-0.493 c 0.675,0.258 1.478,0.638 2.316,1.206 1.555,1.056 2.539,2.294 3.113,3.16 0.75,-0.341 1.593,-0.785 2.475,-1.367 1.246,-0.821 2.226,-1.688 2.97,-2.447 z" inkscape:connector-curvature="0" />
                </g>
                <g transform="translate(117.0391,547.8282)" id="g748">
                    <path id="path750" style="fill:#767164;fill-opacity:1;fill-rule:nonzero;stroke:none" d="m 0,0 c -1.761,0 -3.189,1.255 -3.189,2.804 0,1.548 1.428,2.803 3.189,2.803 1.761,0 3.189,-1.255 3.189,-2.803 C 3.189,1.255 1.761,0 0,0 m 0,6.221 c -2.371,0 -4.293,-1.53 -4.293,-3.417 0,-1.887 1.922,-3.417 4.293,-3.417 2.371,0 4.293,1.53 4.293,3.417 0,1.887 -1.922,3.417 -4.293,3.417" inkscape:connector-curvature="0" />
                </g>
                <g transform="translate(133.4658,552.8932)" id="g752">
                    <path id="path754" style="fill:#767164;fill-opacity:1;fill-rule:nonzero;stroke:none" d="M 0,0 C 0.039,0.136 0.075,0.268 0.107,0.394 H 0 -1.013 -7.097 V -0.22 h 5.923 c -1.483,-5.016 -6.662,-7.626 -6.662,-7.626 l 0.4,-0.465 c 1.255,0.539 3.931,1.901 5.863,4.861 0.76,1.163 1.219,2.29 1.506,3.23 z" inkscape:connector-curvature="0" />
                </g>
                <g transform="translate(147.2061,550.0157)" id="g756">
                    <path id="path758" style="fill:#767164;fill-opacity:1;fill-rule:nonzero;stroke:none" d="m 0,0 c -0.5,0.377 -0.985,0.674 -1.431,0.911 0.513,0.878 0.963,1.902 1.279,3.085 L -1.183,4.39 c 0,0 -1.015,-4.579 -5.149,-7.449 l 0.383,-0.48 c 0,0 2.365,1.128 4.19,3.921 1.684,-1.178 3.242,-3.494 3.242,-3.494 l 0.863,0.688 C 1.841,-1.71 1.086,-0.819 0,0" inkscape:connector-curvature="0" />
                </g>
            </g>
        </g>
    </g>
</svg>